FWD
version=1
nRows=15
nColumns=23
inDegrees=yes
endheader
time	platform_rz	pelvis_rx	pelvis_ry	pelvis_rz	pelvis_tx	pelvis_ty	pelvis_tz	LHip_rz	LKnee_rz	RHip_rz	RKnee_rz	platform_rz_u	pelvis_rx_u	pelvis_ry_u	pelvis_rz_u	pelvis_tx_u	pelvis_ty_u	pelvis_tz_u	LHip_rz_u	LKnee_rz_u	RHip_rz_u	RKnee_rz_u
      0.00000000	    -10.00000000	      0.00000000	      0.00000000	      0.00000000	      0.00000000	      1.00000000	      0.00000000	    -10.00000000	    -30.00000000	     30.00000000	    -30.00000000	      0.00000000	      0.00000000	      0.00000000	      0.00000000	      0.00000000	      0.00000000	      0.00000000	      0.00000000	      0.00000000	      0.00000000	      0.00000000
      0.00100000	    -10.00000000	      0.00000000	      0.00000000	     -0.00000000	      0.00000851	      0.99995171	      0.00000000	    -10.00000000	    -30.00000000	     30.00000000	    -30.00000000	      0.00000000	      0.00000000	      0.00000000	     -0.00000000	      0.00170291	     -0.00965766	      0.00000000	      0.00000000	      0.00000000	     -0.00000000	      0.00000000
      0.00200000	    -10.00000000	      0.00000000	      0.00000000	     -0.00000000	      0.00001703	      0.99990342	      0.00000000	    -10.00000000	    -30.00000000	     30.00000000	    -30.00000000	      0.00000000	      0.00000000	      0.00000000	     -0.00000000	      0.00340581	     -0.01931533	      0.00000000	      0.00000000	      0.00000000	     -0.00000000	      0.00000000
      0.00300000	    -10.00000000	      0.00000000	      0.00000000	     -0.00000000	      0.00002554	      0.99985514	      0.00000000	    -10.00000000	    -30.00000000	     30.00000000	    -30.00000000	      0.00000000	      0.00000000	      0.00000000	     -0.00000000	      0.00510872	     -0.02897299	      0.00000000	      0.00000000	      0.00000000	     -0.00000000	      0.00000000
      0.00400000	    -10.00000000	      0.00000000	      0.00000000	     -0.00000000	      0.00003406	      0.99980685	      0.00000000	    -10.00000000	    -30.00000000	     30.00000000	    -30.00000000	      0.00000000	      0.00000000	      0.00000000	     -0.00000000	      0.00681163	     -0.03863066	      0.00000000	      0.00000000	      0.00000000	     -0.00000000	      0.00000000
      0.00500000	    -10.00000000	      0.00000000	      0.00000000	     -0.00000000	      0.00004257	      0.99975856	      0.00000000	    -10.00000000	    -30.00000000	     30.00000000	    -30.00000000	      0.00000000	      0.00000000	      0.00000000	     -0.00000000	      0.00851453	     -0.04828832	      0.00000000	      0.00000000	      0.00000000	     -0.00000000	      0.00000000
      0.00600000	    -10.00000000	      0.00000000	      0.00000000	     -0.00000000	      0.00005109	      0.99971027	      0.00000000	    -10.00000000	    -30.00000000	     30.00000000	    -30.00000000	      0.00000000	      0.00000000	      0.00000000	     -0.00000000	      0.01021744	     -0.05794599	      0.00000000	      0.00000000	      0.00000000	     -0.00000000	      0.00000000
      0.00700000	    -10.00000000	      0.00000000	      0.00000000	     -0.00000000	      0.00005960	      0.99966198	      0.00000000	    -10.00000000	    -30.00000000	     30.00000000	    -30.00000000	      0.00000000	      0.00000000	      0.00000000	     -0.00000000	      0.01192035	     -0.06760365	      0.00000000	      0.00000000	      0.00000000	     -0.00000000	      0.00000000
      0.00800000	    -10.00000000	      0.00000000	      0.00000000	     -0.00000000	      0.00006812	      0.99961369	      0.00000000	    -10.00000000	    -30.00000000	     30.00000000	    -30.00000000	      0.00000000	      0.00000000	      0.00000000	     -0.00000000	      0.01362326	     -0.07726132	      0.00000000	      0.00000000	      0.00000000	     -0.00000000	      0.00000000
      0.00900000	    -10.00000000	      0.00000000	      0.00000000	     -0.00000000	      0.00007663	      0.99956541	      0.00000000	    -10.00000000	    -30.00000000	     30.00000000	    -30.00000000	      0.00000000	      0.00000000	      0.00000000	     -0.00000000	      0.01532616	     -0.08691898	      0.00000000	      0.00000000	      0.00000000	     -0.00000000	      0.00000000
      0.01000000	    -10.00000000	      0.00000000	      0.00000000	     -0.00000000	      0.00008515	      0.99951712	      0.00000000	    -10.00000000	    -30.00000000	     30.00000000	    -30.00000000	      0.00000000	      0.00000000	      0.00000000	     -0.00000000	      0.01702907	     -0.09657665	      0.00000000	      0.00000000	      0.00000000	     -0.00000000	      0.00000000
      0.01100000	    -10.00000000	      0.00000000	      0.00000000	     -0.00000000	      0.00014475	      0.99917910	      0.00000000	    -10.00000000	    -30.00000000	     30.00000000	    -30.00000000	      0.00000000	      0.00000000	      0.00000000	     -0.00000000	      0.01873198	     -0.10623431	      0.00000000	      0.00000000	      0.00000000	     -0.00000000	      0.00000000
      0.01200000	    -10.00000000	      0.00000000	      0.00000000	     -0.00000000	      0.00020435	      0.99884108	      0.00000000	    -10.00000000	    -30.00000000	     30.00000000	    -30.00000000	      0.00000000	      0.00000000	      0.00000000	     -0.00000000	      0.02043488	     -0.11589198	      0.00000000	      0.00000000	      0.00000000	     -0.00000000	      0.00000000
      0.01300000	    -10.00000000	      0.00000000	      0.00000000	     -0.00000000	      0.00026395	      0.99850306	      0.00000000	    -10.00000000	    -30.00000000	     30.00000000	    -30.00000000	      0.00000000	      0.00000000	      0.00000000	     -0.00000000	      0.02213779	     -0.12554964	      0.00000000	      0.00000000	      0.00000000	     -0.00000000	      0.00000000
      0.01400000	    -10.00000000	      0.00000000	      0.00000000	     -0.00000000	      0.00032355	      0.99816504	      0.00000000	    -10.00000000	    -30.00000000	     30.00000000	    -30.00000000	      0.00000000	      0.00000000	      0.00000000	     -0.00000000	      0.02384070	     -0.13520731	      0.00000000	      0.00000000	      0.00000000	     -0.00000000	      0.00000000
